<?xml version="1.0" encoding="UTF-8"?>
<svg xmlns="http://www.w3.org/2000/svg" viewBox="0 0 128 128">
	<path d="M64 8C33.6 8 8.9 30.9 5.4 60.3l34.4 14.2a18.1 18.1 0 0 1 10.3-3.2c.3 0 .7 0 1 .1l15.3-22.1v-.3a24.4 24.4 0 1 1 24.4 24.4h-.6L68.4 88.7v.9a18.2 18.2 0 1 1-36.3 1.6L8.6 81.6C15.3 108.4 37.4 120 64 120c33.1 0 60-26.9 60-60S97.1 8 64 8Zm-24 92.6-7.9-3.3a13.7 13.7 0 0 0 7.1 6.7 13.6 13.6 0 0 0 17.7-7.3 13.5 13.5 0 0 0 0-10.4 13.5 13.5 0 0 0-7.3-7.3 13.4 13.4 0 0 0-10.2-.1l8.2 3.4a10 10 0 1 1-7.6 18.3ZM99.5 51.4a16.3 16.3 0 1 0-32.5 0 16.3 16.3 0 0 0 32.5 0Zm-28.4 0a12.2 12.2 0 1 1 24.4 0 12.2 12.2 0 0 1-24.4 0Z" />
</svg>
